<svg xmlns="http://www.w3.org/2000/svg" viewBox="0 0 512 512" width="512" height="512">
  <defs>
    <linearGradient id="bg-grad" x1="0%" y1="0%" x2="100%" y2="100%">
      <stop offset="0%" stop-color="#080d16"/>
      <stop offset="100%" stop-color="#020408"/>
    </linearGradient>
    <linearGradient id="cyan-blue" x1="0%" y1="0%" x2="100%" y2="100%">
      <stop offset="0%" stop-color="#00f0ff"/>
      <stop offset="100%" stop-color="#22a0ff"/>
    </linearGradient>
    <filter id="glow" x="-20%" y="-20%" width="140%" height="140%">
      <feGaussianBlur stdDeviation="12" result="blur"/>
      <feComposite in="SourceGraphic" in2="blur" operator="over"/>
    </filter>
  </defs>
  <!-- App Background Tile with rounded corners -->
  <rect width="512" height="512" rx="110" fill="url(#bg-grad)"/>
  <rect width="504" height="504" x="4" y="4" rx="106" fill="none" stroke="url(#cyan-blue)" stroke-width="4" opacity="0.3"/>
  
  <!-- Glowing Center Mouse Body -->
  <g transform="translate(106, 76)" filter="url(#glow)">
    <!-- Mouse Outer Body -->
    <rect x="50" y="30" width="200" height="300" rx="100" fill="none" stroke="url(#cyan-blue)" stroke-width="16"/>
    <!-- Divider Line -->
    <line x1="150" y1="30" x2="150" y2="150" stroke="url(#cyan-blue)" stroke-width="14" stroke-linecap="round"/>
    <line x1="50" y1="150" x2="250" y2="150" stroke="url(#cyan-blue)" stroke-width="12" opacity="0.5"/>
    
    <!-- Scroll Wheel Glowing Indicator -->
    <rect x="136" y="90" width="28" height="46" rx="14" fill="#00f0ff" opacity="0.9"/>
    
    <!-- Keyboard Keys Accent Grid below -->
    <rect x="85" y="210" width="30" height="24" rx="6" fill="url(#cyan-blue)" opacity="0.8"/>
    <rect x="135" y="210" width="30" height="24" rx="6" fill="url(#cyan-blue)" opacity="0.8"/>
    <rect x="185" y="210" width="30" height="24" rx="6" fill="url(#cyan-blue)" opacity="0.8"/>
    
    <rect x="95" y="246" width="110" height="20" rx="6" fill="url(#cyan-blue)" opacity="0.6"/>
  </g>
</svg>
